<svg width="600" height="601" viewBox="0 0 600 601" fill="none" xmlns="http://www.w3.org/2000/svg">
<path d="M280.497 6.94469C291.85 -2.3149 308.149 -2.3149 319.502 6.94469L343.981 26.91C351.686 33.1919 361.943 35.3791 371.536 32.7855L401.949 24.5655C416.073 20.7481 430.933 27.3729 437.537 40.428L451.907 68.8463C456.381 77.69 464.827 83.8472 474.615 85.3978L505.87 90.3495C520.271 92.6311 531.112 104.683 531.858 119.245L533.503 151.306C534.009 161.164 539.202 170.185 547.472 175.575L574.213 193.005C586.389 200.944 591.376 216.307 586.179 229.885L574.676 259.949C571.155 269.146 572.238 279.471 577.586 287.739L595.051 314.728C602.941 326.926 601.256 342.975 591.002 353.269L568.384 375.977C561.429 382.96 558.226 392.843 559.769 402.579L564.802 434.359C567.076 448.735 558.994 462.747 545.411 467.981L515.757 479.398C506.528 482.953 499.56 490.713 497.02 500.273L488.809 531.186C485.06 545.306 471.924 554.86 457.338 554.079L425.836 552.394C415.921 551.863 406.359 556.134 400.138 563.87L380.272 588.58C371.095 599.994 355.16 603.386 342.129 596.696L314.092 582.301C305.246 577.762 294.754 577.762 285.908 582.301L257.869 596.696C244.84 603.386 228.905 599.994 219.728 588.58L199.862 563.87C193.641 556.134 184.078 551.863 174.165 552.394L142.662 554.079C128.075 554.86 114.94 545.306 111.19 531.186L102.978 500.273C100.439 490.713 93.4727 482.953 84.2432 479.398L54.5891 467.981C41.0042 462.747 32.923 448.735 35.1996 434.359L40.2315 402.579C41.7728 392.843 38.5711 382.96 31.6155 375.977L8.99614 353.269C-1.25631 342.975 -2.94124 326.926 4.95017 314.728L22.4124 287.739C27.7621 279.471 28.8436 269.146 25.3241 259.949L13.819 229.885C8.62305 216.307 13.609 200.944 25.7878 193.005L52.5288 175.575C60.7979 170.185 65.9893 161.164 66.4951 151.306L68.1404 119.245C68.8877 104.683 79.7267 92.6311 94.1287 90.3495L125.384 85.3978C135.172 83.8472 143.619 77.69 148.092 68.8463L162.464 40.428C169.066 27.3729 183.928 20.7481 198.051 24.5655L228.463 32.7855C238.058 35.3791 248.315 33.1919 256.017 26.91L280.497 6.94469Z" fill="black"/>
</svg>
